<svg xmlns="http://www.w3.org/2000/svg" xmlns:xlink="http://www.w3.org/1999/xlink" width="37" height="37" viewBox="0 0 37 37">
  <defs>
    <clipPath id="clip-path">
      <circle id="타원_3" data-name="타원 3" cx="18.5" cy="18.5" r="18.5" transform="translate(288 268)"/>
    </clipPath>
  </defs>
  <g id="그룹_3" data-name="그룹 3" transform="translate(-275 -266)">
    <circle id="타원_2" data-name="타원 2" cx="18.5" cy="18.5" r="18.5" transform="translate(275 266)"/>
    <g id="마스크_그룹_1" data-name="마스크 그룹 1" transform="translate(-13 -2)" clip-path="url(#clip-path)">
      <g id="그룹_2" data-name="그룹 2" transform="translate(292.922 272.922)">
        <rect id="사각형_1" data-name="사각형 1" width="22.746" height="22.746" transform="translate(2.437 2.437)" fill="#fff"/>
        <path id="kakaotalk-svgrepo-com" d="M25.034,0H2.122A2.122,2.122,0,0,0,0,2.122V25.034a2.122,2.122,0,0,0,2.122,2.122H25.034a2.122,2.122,0,0,0,2.122-2.122V2.122A2.122,2.122,0,0,0,25.034,0ZM13.578,21.215a14.083,14.083,0,0,1-1.96-.136c-.636.448-4.314,3.031-4.662,3.08a.33.33,0,0,1-.263-.016c-.121-.071-.1-.259-.1-.259.036-.249.954-3.415,1.122-4-3.106-1.539-5.171-4.265-5.171-7.369,0-4.8,4.939-8.7,11.032-8.7s11.032,3.895,11.032,8.7S19.671,21.215,13.578,21.215ZM9.108,11.164H8.115v3.781a.637.637,0,0,1-1.273,0V11.164H5.849a.625.625,0,0,1,0-1.246H9.107a.625.625,0,0,1,0,1.246ZM21.54,14.51a.636.636,0,1,1-1.016.766L19.031,13.3l-.221.221v1.388a.636.636,0,1,1-1.273,0V10.554a.637.637,0,0,1,1.273,0v1.369l1.776-1.776A.494.494,0,0,1,20.939,10a.645.645,0,0,1,.626.592.5.5,0,0,1-.14.388l-1.451,1.449,1.567,2.076Zm-9.448-3.962a.886.886,0,0,0-1.7,0L8.874,14.553c-.193.6-.025.824.15.905a.97.97,0,0,0,.4.087.522.522,0,0,0,.53-.281l.316-.826h1.94l.316.826a.522.522,0,0,0,.53.281.973.973,0,0,0,.4-.088c.175-.08.344-.3.15-.905l-1.522-4.005Zm-1.483,2.764.636-1.806.635,1.806Zm6.681,1.565a.6.6,0,0,1-.61.584H14.639a.6.6,0,0,1-.611-.584V10.554a.65.65,0,0,1,1.3,0v3.74H16.68a.6.6,0,0,1,.611.583Z" transform="translate(0 0)"/>
      </g>
    </g>
  </g>
</svg>
